<svg width="183" height="39" viewBox="0 0 183 39" fill="none" xmlns="http://www.w3.org/2000/svg">
<path d="M18.9497 9.02327V0.0622292L9.3302 13.8149L18.9497 9.02327Z" fill="#F9CB3D"/>
<path d="M0.0722656 19.4156V9.45887L9.40245 13.7527L0.0722656 19.4156Z" fill="#CF0404"/>
<path d="M9.40252 13.7527L0 9.45887L19.0943 0L9.40252 13.7527Z" fill="#FA710F"/>
<path d="M9.40247 13.6905V23.6472L0.0722771 19.3534L9.40247 13.6905Z" fill="#ED6F64"/>
<path d="M4.0503 29.3101V38.2711L13.6698 24.5184L4.0503 29.3101Z" fill="#61BA79"/>
<path d="M22.9277 18.9178V28.8745L13.5975 24.5806L22.9277 18.9178Z" fill="#6CA1F6"/>
<path d="M13.5975 24.5806L23 28.8745L3.90566 38.3333L13.5975 24.5806Z" fill="#2EA44E"/>
<path d="M13.5975 24.6429V14.6862L22.9277 18.98L13.5975 24.6429Z" fill="#3171D5"/>
<path d="M46.2393 17.674C46.1882 17.1584 45.9688 16.7578 45.581 16.4723C45.1932 16.1868 44.6669 16.044 44.0021 16.044C43.5504 16.044 43.169 16.108 42.858 16.2358C42.5469 16.3594 42.3082 16.532 42.142 16.7536C41.9801 16.9751 41.8991 17.2266 41.8991 17.5078C41.8906 17.7422 41.9396 17.9467 42.0462 18.1214C42.157 18.2962 42.3082 18.4474 42.5 18.5753C42.6918 18.6989 42.9134 18.8075 43.1648 18.9013C43.4162 18.9908 43.6847 19.0675 43.9702 19.1314L45.1463 19.4126C45.7173 19.5405 46.2415 19.7109 46.7188 19.924C47.196 20.1371 47.6094 20.3991 47.9588 20.7102C48.3082 21.0213 48.5788 21.3878 48.7706 21.8097C48.9666 22.2315 49.0668 22.7152 49.071 23.2607C49.0668 24.0618 48.8622 24.7564 48.4574 25.3445C48.0568 25.9283 47.4773 26.3821 46.7188 26.706C45.9645 27.0256 45.0547 27.1854 43.9893 27.1854C42.9325 27.1854 42.0121 27.0234 41.228 26.6996C40.4482 26.3757 39.8388 25.8963 39.3999 25.2614C38.9652 24.6222 38.7372 23.8317 38.7159 22.8899H41.3942C41.424 23.3288 41.5497 23.6953 41.7713 23.9893C41.9972 24.2791 42.2976 24.4986 42.6726 24.6477C43.0518 24.7926 43.4801 24.8651 43.9574 24.8651C44.4261 24.8651 44.8331 24.7969 45.1783 24.6605C45.5277 24.5241 45.7983 24.3345 45.9901 24.0916C46.1818 23.8487 46.2777 23.5696 46.2777 23.2543C46.2777 22.9602 46.1903 22.7131 46.0156 22.5128C45.8452 22.3125 45.5938 22.142 45.2614 22.0014C44.9332 21.8608 44.5305 21.733 44.0533 21.6179L42.6278 21.2599C41.5241 20.9915 40.6527 20.5717 40.0135 20.0007C39.3743 19.4297 39.0568 18.6605 39.0611 17.6932C39.0568 16.9006 39.2678 16.2081 39.6939 15.6158C40.1243 15.0234 40.7145 14.5611 41.4645 14.2287C42.2145 13.8963 43.0668 13.7301 44.0213 13.7301C44.9929 13.7301 45.8409 13.8963 46.5653 14.2287C47.294 14.5611 47.8608 15.0234 48.2656 15.6158C48.6705 16.2081 48.8793 16.8942 48.892 17.674H46.2393ZM52.1703 27H49.2044L53.7235 13.9091H57.2903L61.8031 27H58.8372L55.5581 16.9006H55.4558L52.1703 27ZM51.9849 21.8544H58.9906V24.0149H51.9849V21.8544ZM64.9151 27H61.9492L66.4684 13.9091H70.0351L74.5479 27H71.582L68.3029 16.9006H68.2006L64.9151 27ZM64.7297 21.8544H71.7354V24.0149H64.7297V21.8544ZM90.4 18.4922H87.6003C87.5492 18.13 87.4448 17.8082 87.2871 17.527C87.1294 17.2415 86.927 16.9986 86.6798 16.7983C86.4327 16.598 86.1472 16.4446 85.8233 16.3381C85.5037 16.2315 85.1564 16.1783 84.7814 16.1783C84.1038 16.1783 83.5136 16.3466 83.0108 16.6832C82.508 17.0156 82.118 17.5014 81.8411 18.1406C81.5641 18.7756 81.4256 19.5469 81.4256 20.4545C81.4256 21.3878 81.5641 22.1719 81.8411 22.8068C82.1223 23.4418 82.5144 23.9212 83.0172 24.245C83.52 24.5689 84.1017 24.7308 84.7622 24.7308C85.133 24.7308 85.476 24.6818 85.7913 24.5838C86.1109 24.4858 86.3943 24.343 86.6415 24.1555C86.8886 23.9638 87.0932 23.7315 87.2551 23.4588C87.4213 23.1861 87.5364 22.875 87.6003 22.5256L90.4 22.5384C90.3276 23.1392 90.1465 23.7188 89.8567 24.277C89.5712 24.831 89.1855 25.3274 88.6997 25.7663C88.2182 26.201 87.6429 26.5462 86.9739 26.8018C86.3091 27.0533 85.557 27.179 84.7175 27.179C83.5499 27.179 82.5058 26.9148 81.5854 26.3864C80.6692 25.858 79.9448 25.093 79.4121 24.0916C78.8837 23.0902 78.6195 21.8778 78.6195 20.4545C78.6195 19.027 78.8879 17.8125 79.4249 16.8111C79.9618 15.8097 80.6905 15.0469 81.6109 14.5227C82.5314 13.9943 83.5669 13.7301 84.7175 13.7301C85.476 13.7301 86.1791 13.8366 86.8269 14.0497C87.4788 14.2628 88.0563 14.5739 88.5591 14.983C89.0619 15.3878 89.471 15.8842 89.7864 16.4723C90.106 17.0604 90.3105 17.7337 90.4 18.4922ZM96.0497 27.1918C95.0568 27.1918 94.1981 26.9808 93.4737 26.5589C92.7535 26.1328 92.1974 25.5405 91.8054 24.782C91.4133 24.0192 91.2173 23.1349 91.2173 22.1293C91.2173 21.1151 91.4133 20.2287 91.8054 19.4702C92.1974 18.7074 92.7535 18.1151 93.4737 17.6932C94.1981 17.267 95.0568 17.054 96.0497 17.054C97.0426 17.054 97.8991 17.267 98.6193 17.6932C99.3437 18.1151 99.902 18.7074 100.294 19.4702C100.686 20.2287 100.882 21.1151 100.882 22.1293C100.882 23.1349 100.686 24.0192 100.294 24.782C99.902 25.5405 99.3437 26.1328 98.6193 26.5589C97.8991 26.9808 97.0426 27.1918 96.0497 27.1918ZM96.0625 25.0824C96.5142 25.0824 96.8913 24.9545 97.1939 24.6989C97.4964 24.4389 97.7244 24.0852 97.8778 23.6378C98.0355 23.1903 98.1143 22.6811 98.1143 22.1101C98.1143 21.5391 98.0355 21.0298 97.8778 20.5824C97.7244 20.1349 97.4964 19.7812 97.1939 19.5213C96.8913 19.2614 96.5142 19.1314 96.0625 19.1314C95.6065 19.1314 95.223 19.2614 94.9119 19.5213C94.6051 19.7812 94.3728 20.1349 94.2152 20.5824C94.0618 21.0298 93.9851 21.5391 93.9851 22.1101C93.9851 22.6811 94.0618 23.1903 94.2152 23.6378C94.3728 24.0852 94.6051 24.4389 94.9119 24.6989C95.223 24.9545 95.6065 25.0824 96.0625 25.0824ZM104.656 21.3239V27H101.933V17.1818H104.528V18.9141H104.643C104.86 18.343 105.225 17.8913 105.736 17.5589C106.247 17.2223 106.867 17.054 107.596 17.054C108.278 17.054 108.872 17.2031 109.379 17.5014C109.886 17.7997 110.281 18.2259 110.562 18.7798C110.843 19.3295 110.984 19.9858 110.984 20.7486V27H108.261V21.2344C108.265 20.6335 108.112 20.1648 107.801 19.8281C107.489 19.4872 107.061 19.3168 106.516 19.3168C106.149 19.3168 105.825 19.3956 105.544 19.5533C105.267 19.7109 105.05 19.9411 104.892 20.2436C104.739 20.5419 104.66 20.902 104.656 21.3239ZM120.579 19.9815L118.086 20.1349C118.043 19.9219 117.952 19.7301 117.811 19.5597C117.671 19.3849 117.485 19.2464 117.255 19.1442C117.029 19.0376 116.759 18.9844 116.443 18.9844C116.021 18.9844 115.666 19.0739 115.376 19.2528C115.086 19.4276 114.941 19.6619 114.941 19.956C114.941 20.1903 115.035 20.3885 115.222 20.5504C115.41 20.7124 115.732 20.8423 116.188 20.9403L117.965 21.2983C118.919 21.4943 119.631 21.8097 120.1 22.2443C120.568 22.679 120.803 23.25 120.803 23.9574C120.803 24.6009 120.613 25.1655 120.234 25.6513C119.859 26.1371 119.343 26.5163 118.687 26.7891C118.035 27.0575 117.283 27.1918 116.431 27.1918C115.131 27.1918 114.095 26.9212 113.324 26.38C112.557 25.8345 112.107 25.093 111.975 24.1555L114.654 24.0149C114.735 24.4112 114.931 24.7138 115.242 24.9226C115.553 25.1271 115.951 25.2294 116.437 25.2294C116.914 25.2294 117.298 25.1378 117.587 24.9545C117.882 24.767 118.031 24.5263 118.035 24.2322C118.031 23.9851 117.926 23.7827 117.722 23.625C117.517 23.4631 117.202 23.3395 116.776 23.2543L115.075 22.9155C114.117 22.7237 113.403 22.3913 112.934 21.9183C112.47 21.4453 112.237 20.8423 112.237 20.1094C112.237 19.4787 112.408 18.9354 112.749 18.4794C113.094 18.0234 113.578 17.6719 114.2 17.4247C114.826 17.1776 115.559 17.054 116.399 17.054C117.639 17.054 118.614 17.3161 119.326 17.8402C120.042 18.3643 120.46 19.0781 120.579 19.9815ZM128.094 22.8196V17.1818H130.817V27H128.202V25.2166H128.1C127.878 25.7919 127.51 26.2543 126.994 26.6037C126.483 26.9531 125.858 27.1278 125.121 27.1278C124.465 27.1278 123.888 26.9787 123.389 26.6804C122.89 26.3821 122.5 25.9581 122.219 25.4084C121.942 24.8587 121.802 24.2003 121.797 23.4332V17.1818H124.52V22.9474C124.525 23.527 124.68 23.9851 124.987 24.3217C125.294 24.6584 125.705 24.8267 126.221 24.8267C126.549 24.8267 126.856 24.7521 127.141 24.603C127.427 24.4496 127.657 24.2237 127.831 23.9254C128.01 23.6271 128.098 23.2585 128.094 22.8196ZM134.998 13.9091V27H132.275V13.9091H134.998ZM141.681 17.1818V19.2273H135.769V17.1818H141.681ZM137.111 14.8295H139.834V23.983C139.834 24.2344 139.872 24.4304 139.949 24.571C140.026 24.7074 140.132 24.8033 140.269 24.8587C140.409 24.9141 140.571 24.9418 140.754 24.9418C140.882 24.9418 141.01 24.9311 141.138 24.9098C141.266 24.8842 141.364 24.8651 141.432 24.8523L141.86 26.8786C141.724 26.9212 141.532 26.9702 141.285 27.0256C141.038 27.0852 140.737 27.1214 140.384 27.1342C139.727 27.1598 139.152 27.0724 138.658 26.8722C138.168 26.6719 137.786 26.3608 137.514 25.9389C137.241 25.517 137.107 24.9844 137.111 24.3409V14.8295ZM145.535 27.1854C144.908 27.1854 144.35 27.0767 143.86 26.8594C143.37 26.6378 142.982 26.3118 142.697 25.8814C142.415 25.4467 142.275 24.9055 142.275 24.2578C142.275 23.7124 142.375 23.2543 142.575 22.8835C142.775 22.5128 143.048 22.2145 143.393 21.9886C143.739 21.7628 144.131 21.5923 144.57 21.4773C145.013 21.3622 145.477 21.2812 145.963 21.2344C146.534 21.1747 146.994 21.1193 147.344 21.0682C147.693 21.0128 147.947 20.9318 148.104 20.8253C148.262 20.7187 148.341 20.5611 148.341 20.3523V20.3139C148.341 19.9091 148.213 19.5959 147.957 19.3743C147.706 19.1527 147.348 19.0419 146.883 19.0419C146.393 19.0419 146.003 19.1506 145.714 19.3679C145.424 19.581 145.232 19.8494 145.138 20.1733L142.62 19.9688C142.748 19.3722 142.999 18.8565 143.374 18.4219C143.749 17.983 144.233 17.6463 144.825 17.4119C145.422 17.1733 146.112 17.054 146.896 17.054C147.442 17.054 147.964 17.1179 148.462 17.2457C148.965 17.3736 149.41 17.5717 149.798 17.8402C150.19 18.1087 150.499 18.4538 150.725 18.8757C150.951 19.2933 151.064 19.794 151.064 20.3778V27H148.481V25.6385H148.405C148.247 25.9453 148.036 26.2159 147.772 26.4503C147.508 26.6804 147.19 26.8615 146.82 26.9936C146.449 27.1214 146.021 27.1854 145.535 27.1854ZM146.315 25.3061C146.715 25.3061 147.069 25.2273 147.376 25.0696C147.682 24.9077 147.923 24.6903 148.098 24.4176C148.273 24.1449 148.36 23.8359 148.36 23.4908V22.4489C148.275 22.5043 148.158 22.5554 148.008 22.6023C147.864 22.6449 147.699 22.6854 147.516 22.7237C147.333 22.7578 147.15 22.7898 146.967 22.8196C146.783 22.8452 146.617 22.8686 146.468 22.8899C146.148 22.9368 145.869 23.0114 145.631 23.1136C145.392 23.2159 145.207 23.3544 145.074 23.5291C144.942 23.6996 144.876 23.9126 144.876 24.1683C144.876 24.5391 145.011 24.8224 145.279 25.0185C145.552 25.2102 145.897 25.3061 146.315 25.3061ZM155.179 21.3239V27H152.456V17.1818H155.052V18.9141H155.167C155.384 18.343 155.748 17.8913 156.26 17.5589C156.771 17.2223 157.391 17.054 158.12 17.054C158.802 17.054 159.396 17.2031 159.903 17.5014C160.41 17.7997 160.804 18.2259 161.086 18.7798C161.367 19.3295 161.508 19.9858 161.508 20.7486V27H158.785V21.2344C158.789 20.6335 158.635 20.1648 158.324 19.8281C158.013 19.4872 157.585 19.3168 157.04 19.3168C156.673 19.3168 156.349 19.3956 156.068 19.5533C155.791 19.7109 155.574 19.9411 155.416 20.2436C155.263 20.5419 155.184 20.902 155.179 21.3239ZM167.37 27.1918C166.364 27.1918 165.499 26.9787 164.775 26.5526C164.054 26.1222 163.5 25.5256 163.113 24.7628C162.729 24 162.537 23.1222 162.537 22.1293C162.537 21.1236 162.731 20.2415 163.119 19.483C163.511 18.7202 164.067 18.1257 164.787 17.6996C165.508 17.2692 166.364 17.054 167.357 17.054C168.214 17.054 168.964 17.2095 169.607 17.5206C170.25 17.8317 170.76 18.2685 171.135 18.831C171.51 19.3935 171.716 20.054 171.755 20.8125H169.185C169.113 20.3224 168.921 19.9283 168.61 19.63C168.303 19.3274 167.9 19.1761 167.402 19.1761C166.98 19.1761 166.611 19.2912 166.296 19.5213C165.985 19.7472 165.742 20.0774 165.567 20.5121C165.392 20.9467 165.305 21.473 165.305 22.0909C165.305 22.7173 165.39 23.25 165.561 23.6889C165.736 24.1278 165.981 24.4624 166.296 24.6925C166.611 24.9226 166.98 25.0376 167.402 25.0376C167.713 25.0376 167.992 24.9737 168.239 24.8459C168.49 24.718 168.697 24.5327 168.859 24.2898C169.025 24.0426 169.134 23.7464 169.185 23.4013H171.755C171.712 24.1513 171.508 24.8118 171.141 25.3828C170.779 25.9496 170.278 26.3928 169.639 26.7124C169 27.032 168.243 27.1918 167.37 27.1918ZM174.459 30.6818C174.114 30.6818 173.79 30.6541 173.488 30.5987C173.189 30.5476 172.942 30.4815 172.746 30.4006L173.36 28.3679C173.679 28.4659 173.967 28.5192 174.223 28.5277C174.483 28.5362 174.706 28.4766 174.894 28.3487C175.086 28.2209 175.241 28.0036 175.361 27.6967L175.52 27.2812L171.998 17.1818H174.862L176.895 24.392H176.997L179.049 17.1818H181.932L178.115 28.0611C177.932 28.5895 177.683 29.0497 177.368 29.4418C177.057 29.8381 176.662 30.1428 176.185 30.3558C175.708 30.5732 175.133 30.6818 174.459 30.6818Z" fill="black"/>
</svg>
