<svg width="468" height="106" viewBox="0 0 468 106" fill="none" xmlns="http://www.w3.org/2000/svg">
<path d="M52.3341 25.026V0.326172L25.8188 38.2335L52.3341 25.026Z" fill="#F9CB3D"/>
<path d="M0.294922 53.6692V26.2251L26.0127 38.0604L0.294922 53.6692Z" fill="#CF0404"/>
<path d="M26.0173 38.0528L0.100098 26.2175L52.7319 0.145508L26.0173 38.0528Z" fill="#FA710F"/>
<path d="M26.0249 37.8874V65.3315L0.307085 53.4963L26.0249 37.8874Z" fill="#EE6E63"/>
<path d="M11.2729 80.9252V105.625L37.7881 67.7177L11.2729 80.9252Z" fill="#61BA79"/>
<path d="M63.3013 52.282V79.7261L37.5835 67.8908L63.3013 52.282Z" fill="#6CA1F6"/>
<path d="M37.5789 67.8983L63.4961 79.7336L10.8643 105.806L37.5789 67.8983Z" fill="#2EA44E"/>
<path d="M37.5815 68.0637V40.6196L63.2994 52.4549L37.5815 68.0637Z" fill="#3171D5"/>
<path d="M121.012 45.6124C120.857 44.1582 120.201 43.0257 119.045 42.2152C117.901 41.4049 116.412 40.9995 114.578 40.9995C113.289 40.9995 112.183 41.1939 111.261 41.5823C110.339 41.971 109.633 42.4983 109.144 43.1645C108.655 43.8307 108.405 44.5912 108.394 45.4459C108.394 46.1564 108.555 46.7725 108.877 47.2944C109.211 47.8162 109.661 48.2602 110.228 48.6267C110.794 48.9818 111.422 49.2817 112.111 49.5258C112.8 49.7702 113.495 49.9755 114.195 50.1419L117.395 50.9415C118.684 51.2411 119.923 51.6465 121.112 52.1571C122.312 52.6677 123.385 53.3118 124.329 54.0889C125.285 54.8661 126.041 55.804 126.596 56.9031C127.152 58.0023 127.43 59.2901 127.43 60.7667C127.43 62.765 126.919 64.5246 125.896 66.0458C124.874 67.5555 123.396 68.7378 121.462 69.5929C119.54 70.4364 117.212 70.8585 114.478 70.8585C111.822 70.8585 109.517 70.4476 107.561 69.6259C105.616 68.8045 104.093 67.6056 102.993 66.0291C101.904 64.4524 101.315 62.5318 101.227 60.267H107.311C107.4 61.455 107.766 62.443 108.411 63.2313C109.055 64.0197 109.894 64.6079 110.928 64.9966C111.972 65.3851 113.139 65.5794 114.428 65.5794C115.773 65.5794 116.951 65.3796 117.962 64.98C118.984 64.5691 119.784 64.003 120.362 63.2813C120.94 62.5485 121.235 61.6937 121.245 60.7167C121.235 59.8286 120.973 59.0957 120.462 58.5184C119.951 57.9301 119.234 57.4416 118.312 57.0529C117.401 56.6533 116.334 56.2982 115.112 55.9874L111.228 54.988C108.416 54.2663 106.194 53.1729 104.56 51.7074C102.938 50.2308 102.127 48.2714 102.127 45.8289C102.127 43.8195 102.671 42.0599 103.76 40.5499C104.86 39.0401 106.355 37.8688 108.244 37.0361C110.133 36.1923 112.272 35.7705 114.662 35.7705C117.084 35.7705 119.207 36.1923 121.029 37.0361C122.863 37.8688 124.301 39.0289 125.346 40.5165C126.391 41.9932 126.93 43.6918 126.963 45.6124H121.012ZM134.899 70.3421H128.298L140.316 36.2369H147.951L159.985 70.3421H153.385L144.267 43.2312H144L134.899 70.3421ZM135.116 56.9698H153.118V61.9323H135.116V56.9698ZM166.988 70.3421H160.387L172.405 36.2369H180.04L192.074 70.3421H185.474L176.356 43.2312H176.089L166.988 70.3421ZM167.205 56.9698H185.207V61.9323H167.205V56.9698ZM233.679 47.7441H227.445C227.267 46.7225 226.939 45.8177 226.461 45.0296C225.983 44.2303 225.389 43.553 224.678 42.998C223.967 42.4429 223.155 42.0265 222.244 41.7491C221.344 41.4604 220.372 41.3161 219.327 41.3161C217.471 41.3161 215.827 41.7822 214.393 42.7148C212.96 43.6363 211.837 44.9908 211.026 46.7783C210.215 48.5545 209.809 50.725 209.809 53.2894C209.809 55.8985 210.215 58.0966 211.026 59.8841C211.848 61.6603 212.971 63.0036 214.393 63.9142C215.827 64.8132 217.466 65.2629 219.31 65.2629C220.333 65.2629 221.289 65.1298 222.178 64.8633C223.077 64.5858 223.883 64.1804 224.594 63.6476C225.317 63.1149 225.922 62.4596 226.411 61.6825C226.911 60.9053 227.256 60.0172 227.445 59.0181L233.679 59.0514C233.445 60.6724 232.94 62.1934 232.162 63.6143C231.395 65.0355 230.389 66.2899 229.145 67.3779C227.9 68.4549 226.445 69.2985 224.778 69.9091C223.111 70.5086 221.261 70.8085 219.227 70.8085C216.227 70.8085 213.549 70.1144 211.193 68.7269C208.837 67.339 206.981 65.3351 205.626 62.715C204.27 60.0951 203.592 56.9531 203.592 53.2894C203.592 49.6146 204.275 46.4729 205.642 43.8638C207.009 41.2439 208.87 39.2399 211.226 37.8521C213.582 36.4643 216.249 35.7705 219.227 35.7705C221.127 35.7705 222.894 36.037 224.528 36.5698C226.161 37.1028 227.617 37.8855 228.895 38.9179C230.173 39.9395 231.223 41.1939 232.045 42.6815C232.879 44.1582 233.423 45.8456 233.679 47.7441ZM248.366 70.8418C245.866 70.8418 243.699 70.2921 241.865 69.1929C240.032 68.094 238.609 66.5564 237.598 64.5803C236.598 62.604 236.098 60.2949 236.098 57.6527C236.098 55.0104 236.598 52.6956 237.598 50.7083C238.609 48.721 240.032 47.1779 241.865 46.0788C243.699 44.9796 245.866 44.4302 248.366 44.4302C250.866 44.4302 253.033 44.9796 254.867 46.0788C256.7 47.1779 258.117 48.721 259.117 50.7083C260.128 52.6956 260.634 55.0104 260.634 57.6527C260.634 60.2949 260.128 62.604 259.117 64.5803C258.117 66.5564 256.7 68.094 254.867 69.1929C253.033 70.2921 250.866 70.8418 248.366 70.8418ZM248.399 66.0124C249.755 66.0124 250.888 65.6404 251.799 64.8966C252.711 64.1416 253.389 63.1313 253.833 61.8656C254.289 60.6003 254.517 59.1903 254.517 57.636C254.517 56.0705 254.289 54.655 253.833 53.3894C253.389 52.1126 252.711 51.0968 251.799 50.342C250.888 49.587 249.755 49.2095 248.399 49.2095C247.01 49.2095 245.854 49.587 244.932 50.342C244.021 51.0968 243.337 52.1126 242.882 53.3894C242.437 54.655 242.215 56.0705 242.215 57.636C242.215 59.1903 242.437 60.6003 242.882 61.8656C243.337 63.1313 244.021 64.1416 244.932 64.8966C245.854 65.6404 247.01 66.0124 248.399 66.0124ZM269.912 55.3546V70.3421H263.877V44.7631H269.646V49.1095H269.945C270.535 47.6774 271.474 46.5394 272.762 45.6958C274.063 44.8519 275.667 44.4302 277.578 44.4302C279.346 44.4302 280.885 44.8077 282.197 45.5624C283.519 46.3174 284.541 47.4111 285.263 48.8432C285.996 50.2753 286.358 52.0128 286.348 54.0556V70.3421H280.314V54.988C280.314 53.2784 279.868 51.9406 278.979 50.9748C278.102 50.0088 276.885 49.5258 275.33 49.5258C274.274 49.5258 273.335 49.759 272.511 50.2253C271.7 50.6804 271.062 51.3411 270.595 52.2071C270.138 53.0729 269.912 54.122 269.912 55.3546ZM310.84 51.5243L305.34 52.1238C305.184 51.5686 304.91 51.047 304.521 50.5583C304.143 50.07 303.632 49.6759 302.988 49.376C302.344 49.0764 301.556 48.9263 300.623 48.9263C299.366 48.9263 298.31 49.1983 297.454 49.7423C296.609 50.2863 296.192 50.9913 296.205 51.8572C296.192 52.601 296.466 53.2063 297.021 53.6726C297.587 54.1387 298.521 54.5219 299.822 54.8215L304.187 55.7542C306.61 56.276 308.412 57.103 309.588 58.2355C310.777 59.3677 311.38 60.8498 311.39 62.6819C311.38 64.2917 310.905 65.7126 309.971 66.9449C309.051 68.1662 307.768 69.1208 306.122 69.8094C304.477 70.4977 302.589 70.8418 300.456 70.8418C297.321 70.8418 294.8 70.1866 292.888 68.8767C290.977 67.5555 289.837 65.718 289.469 63.3644L295.355 62.7983C295.621 63.953 296.187 64.8244 297.055 65.413C297.921 66.0012 299.05 66.2954 300.438 66.2954C301.872 66.2954 303.022 66.0012 303.888 65.413C304.766 64.8244 305.204 64.0973 305.204 63.2313C305.204 62.4985 304.923 61.8935 304.354 61.4162C303.799 60.9387 302.933 60.5724 301.754 60.3171L297.386 59.4011C294.933 58.8904 293.115 58.0299 291.936 56.82C290.76 55.5987 290.176 54.0556 290.187 52.1905C290.176 50.614 290.604 49.2483 291.47 48.0937C292.348 46.9281 293.566 46.0287 295.12 45.3959C296.688 44.7522 298.495 44.4302 300.539 44.4302C303.538 44.4302 305.901 45.0684 307.622 46.3453C309.356 47.6219 310.428 49.3484 310.84 51.5243ZM330.807 59.5842V44.7631H336.841V70.3421H330.99V65.7959H330.724C330.145 67.2281 329.195 68.3994 327.873 69.3097C326.562 70.2199 324.945 70.6751 323.023 70.6751C321.344 70.6751 319.86 70.3033 318.572 69.5595C317.294 68.8045 316.292 67.7111 315.57 66.2787C314.848 64.8356 314.488 63.0925 314.488 61.0497V44.7631H320.522V60.1172C320.522 61.738 320.965 63.026 321.855 63.9806C322.744 64.9354 323.91 65.413 325.354 65.413C326.243 65.413 327.107 65.1965 327.939 64.7635C328.773 64.3305 329.456 63.6865 329.988 62.8317C330.533 61.9657 330.807 60.8832 330.807 59.5842ZM347.202 36.2369V70.3421H341.167V36.2369H347.202ZM364.314 44.7631V49.426H349.596V44.7631H364.314ZM353.228 38.6347H359.262V62.6485C359.262 63.459 359.385 64.0806 359.63 64.5136C359.886 64.9354 360.219 65.2241 360.629 65.3796C361.041 65.5349 361.497 65.6128 361.998 65.6128C362.373 65.6128 362.72 65.5849 363.031 65.5294C363.351 65.4739 363.596 65.4239 363.763 65.3796L364.78 70.0923C364.457 70.2033 363.998 70.3255 363.398 70.4586C362.809 70.592 362.087 70.6696 361.231 70.6918C359.719 70.7363 358.358 70.5086 357.145 70.0092C355.935 69.4983 354.973 68.7102 354.263 67.6444C353.562 66.5786 353.218 65.2462 353.228 63.6476V38.6347ZM374.851 70.8585C373.227 70.8585 371.766 70.5698 370.465 69.9925C369.177 69.404 368.155 68.538 367.399 67.3945C366.655 66.2511 366.282 64.8411 366.282 63.1646C366.282 61.7216 366.548 60.5281 367.083 59.5842C367.615 58.6406 368.345 57.8858 369.266 57.3194C370.189 56.7533 371.227 56.3258 372.384 56.0371C373.55 55.7375 374.755 55.521 376.001 55.3876C377.501 55.2324 378.719 55.0935 379.65 54.9713C380.583 54.8382 381.261 54.6384 381.684 54.3719C382.116 54.0944 382.336 53.6669 382.336 53.0895V52.9898C382.336 51.7353 381.963 50.7638 381.217 50.0755C380.474 49.3872 379.402 49.043 378.002 49.043C376.523 49.043 375.349 49.365 374.484 50.0088C373.628 50.6528 373.049 51.4133 372.75 52.2902L367.117 51.4909C367.56 49.9366 368.293 48.6377 369.315 47.5942C370.337 46.5394 371.589 45.7513 373.068 45.2294C374.544 44.6964 376.179 44.4302 377.968 44.4302C379.201 44.4302 380.429 44.5745 381.652 44.8631C382.873 45.1518 383.991 45.6291 385.001 46.2953C386.012 46.9502 386.823 47.8438 387.436 48.9763C388.057 50.1089 388.367 51.5243 388.367 53.2229V70.3421H382.568V66.8284H382.367C382.002 67.5389 381.485 68.205 380.818 68.8266C380.161 69.4373 379.334 69.9313 378.333 70.3088C377.344 70.6751 376.184 70.8585 374.851 70.8585ZM376.416 66.4288C377.629 66.4288 378.68 66.1899 379.566 65.7126C380.455 65.2241 381.139 64.5803 381.618 63.7808C382.106 62.9815 382.351 62.11 382.351 61.1664V58.1521C382.163 58.3076 381.84 58.452 381.384 58.5851C380.94 58.7185 380.44 58.8349 379.884 58.9347C379.329 59.0348 378.779 59.1236 378.234 59.2012C377.689 59.2791 377.217 59.3456 376.818 59.4011C375.918 59.5232 375.112 59.7231 374.4 60.0005C373.688 60.2782 373.128 60.6667 372.716 61.1664C372.306 61.6549 372.1 62.2877 372.1 63.0648C372.1 64.1749 372.504 65.0131 373.315 65.5794C374.129 66.1456 375.162 66.4288 376.416 66.4288ZM398.592 55.3546V70.3421H392.558V44.7631H398.326V49.1095H398.626C399.215 47.6774 400.154 46.5394 401.442 45.6958C402.744 44.8519 404.35 44.4302 406.259 44.4302C408.027 44.4302 409.565 44.8077 410.877 45.5624C412.199 46.3174 413.221 47.4111 413.944 48.8432C414.676 50.2753 415.039 52.0128 415.029 54.0556V70.3421H408.994V54.988C408.994 53.2784 408.548 51.9406 407.659 50.9748C406.783 50.0088 405.565 49.5258 404.011 49.5258C402.955 49.5258 402.016 49.759 401.192 50.2253C400.381 50.6804 399.742 51.3411 399.275 52.2071C398.819 53.0729 398.592 54.122 398.592 55.3546ZM430.453 70.8418C427.898 70.8418 425.702 70.2812 423.869 69.1599C422.046 68.0386 420.64 66.4897 419.652 64.5136C418.674 62.5263 418.184 60.2394 418.184 57.6527C418.184 55.0547 418.685 52.7621 419.683 50.7748C420.685 48.7765 422.095 47.2222 423.918 46.1121C425.751 44.9908 427.918 44.4302 430.419 44.4302C432.498 44.4302 434.336 44.8131 435.937 45.5791C437.549 46.3341 438.832 47.4054 439.786 48.7932C440.743 50.1698 441.286 51.7796 441.421 53.6226H435.653C435.418 52.3903 434.863 51.3633 433.987 50.5418C433.118 49.7092 431.958 49.2929 430.503 49.2929C429.269 49.2929 428.184 49.6258 427.251 50.292C426.317 50.947 425.59 51.8906 425.068 53.1229C424.557 54.3552 424.302 55.8318 424.302 57.5526C424.302 59.2955 424.557 60.7943 425.068 62.049C425.579 63.2923 426.296 64.2526 427.22 64.9299C428.153 65.5961 429.246 65.9291 430.503 65.9291C431.392 65.9291 432.185 65.7626 432.886 65.4294C433.598 65.0852 434.193 64.5913 434.67 63.9475C435.147 63.3035 435.476 62.5209 435.653 61.5994H441.421C441.275 63.409 440.743 65.0131 439.82 66.4121C438.897 67.7997 437.643 68.8879 436.052 69.676C434.464 70.4531 432.597 70.8418 430.453 70.8418ZM448.248 79.9342C447.424 79.9342 446.665 79.8678 445.964 79.7344C445.275 79.6122 444.725 79.4679 444.313 79.3014L445.714 74.6054C446.592 74.8607 447.375 74.9829 448.066 74.9717C448.754 74.9605 449.359 74.744 449.881 74.3222C450.415 73.9113 450.864 73.223 451.232 72.2573L451.748 70.8749L442.464 44.7631H448.864L454.765 64.0806H455.031L460.95 44.7631H467.368L457.114 73.4395C456.637 74.794 456.004 75.9541 455.216 76.9202C454.426 77.8971 453.458 78.6409 452.314 79.1516C451.182 79.6734 449.826 79.9342 448.248 79.9342Z" fill="white"/>
</svg>
